<svg xmlns="http://www.w3.org/2000/svg" viewBox="0 0 1000 1000" width="1000" height="1000" preserveAspectRatio="xMidYMid meet" style="width: 100%; height: 100%; transform: translate3d(0px, 0px, 0px); content-visibility: visible;"><defs><clipPath id="__lottie_element_93"><rect width="1000" height="1000" x="0" y="0"/></clipPath><linearGradient id="__lottie_element_98" spreadMethod="pad" gradientUnits="userSpaceOnUse" x1="-31.5" y1="-24.5" x2="-19.517000198364258" y2="-24.5"><stop offset="0%" stop-color="rgb(184,79,248)"/><stop offset="50%" stop-color="rgb(157,59,243)"/><stop offset="100%" stop-color="rgb(130,39,238)"/></linearGradient><linearGradient id="__lottie_element_102" spreadMethod="pad" gradientUnits="userSpaceOnUse" x1="18.5" y1="-23.5" x2="30.482999801635742" y2="-23.5"><stop offset="0%" stop-color="rgb(184,79,248)"/><stop offset="50%" stop-color="rgb(157,59,243)"/><stop offset="100%" stop-color="rgb(130,39,238)"/></linearGradient><linearGradient id="__lottie_element_106" spreadMethod="pad" gradientUnits="userSpaceOnUse" x1="17.5" y1="25.5" x2="29.482999801635742" y2="25.5"><stop offset="0%" stop-color="rgb(184,79,248)"/><stop offset="50%" stop-color="rgb(157,59,243)"/><stop offset="100%" stop-color="rgb(130,39,238)"/></linearGradient><linearGradient id="__lottie_element_110" spreadMethod="pad" gradientUnits="userSpaceOnUse" x1="-31.5" y1="25.5" x2="-19.517000198364258" y2="25.5"><stop offset="0%" stop-color="rgb(184,79,248)"/><stop offset="50%" stop-color="rgb(157,59,243)"/><stop offset="100%" stop-color="rgb(130,39,238)"/></linearGradient><linearGradient id="__lottie_element_114" spreadMethod="pad" gradientUnits="userSpaceOnUse" x1="-36.5" y1="0.5" x2="37.73500061035156" y2="0.5"><stop offset="0%" stop-color="rgb(184,79,248)"/><stop offset="50%" stop-color="rgb(157,59,243)"/><stop offset="100%" stop-color="rgb(130,39,238)"/></linearGradient><linearGradient id="__lottie_element_118" spreadMethod="pad" gradientUnits="userSpaceOnUse" x1="-14.5" y1="0.5" x2="13.437000274658203" y2="0.5"><stop offset="0%" stop-color="rgb(128,205,253)"/><stop offset="50%" stop-color="rgb(100,182,251)"/><stop offset="100%" stop-color="rgb(73,159,249)"/></linearGradient></defs><g clip-path="url(#__lottie_element_93)"><g transform="matrix(10,0,0,10,500,500)" opacity="1" style="display: block;"><g opacity="1" transform="matrix(1,0,0,1,0,0)"><path stroke="url(#__lottie_element_118)" stroke-linecap="butt" stroke-linejoin="miter" fill-opacity="0" stroke-miterlimit="10" stroke-opacity="1" stroke-width="2" d=" M6.872000217437744,-6.498000144958496 C6.872000217437744,-2.7309999465942383 3.818000078201294,0.3240000009536743 0.050999999046325684,0.3240000009536743 C-3.7160000801086426,0.3240000009536743 -6.770999908447266,-2.7309999465942383 -6.770999908447266,-6.498000144958496 C-6.770999908447266,-10.265000343322754 -3.7160000801086426,-13.319000244140625 0.050999999046325684,-13.319000244140625 C3.818000078201294,-13.319000244140625 6.872000217437744,-10.265000343322754 6.872000217437744,-6.498000144958496z M13.022000312805176,10.54800033569336 C13.022000312805176,4.901000022888184 8.444000244140625,0.3240000009536743 2.796999931335449,0.3240000009536743 C2.796999931335449,0.3240000009536743 -2.8540000915527344,0.3240000009536743 -2.8540000915527344,0.3240000009536743 C-8.41100025177002,0.3240000009536743 -12.914999961853027,4.828000068664551 -12.914999961853027,10.385000228881836 C-12.914999961853027,10.385000228881836 -12.914999961853027,12.842000007629395 -12.914999961853027,12.842000007629395 C-12.914999961853027,12.842000007629395 13.022000312805176,12.842000007629395 13.022000312805176,12.842000007629395 C13.022000312805176,12.842000007629395 13.022000312805176,10.54800033569336 13.022000312805176,10.54800033569336z"/></g></g><g transform="matrix(10,0,0,10,500,500)" opacity="1" style="display: block;"><g opacity="1" transform="matrix(1,0,0,1,0,0)"><path stroke="url(#__lottie_element_114)" stroke-linecap="butt" stroke-linejoin="miter" fill-opacity="0" stroke-miterlimit="10" stroke-opacity="1" stroke-width="2" d=" M-29.033000946044922,21.725000381469727 C-33.48500061035156,15.720000267028809 -36.11800003051758,8.28600025177002 -36.11800003051758,0.2370000034570694 C-36.11800003051758,-8.074999809265137 -33.310001373291016,-15.730999946594238 -28.590999603271484,-21.834999084472656 M-22.128000259399414,28.784000396728516 C-16.014999389648438,33.52899932861328 -8.338000297546387,36.35499954223633 0,36.35499954223633 C8.185999870300293,36.35499954223633 15.737000465393066,33.63100051879883 21.79400062561035,29.041000366210938 M28.691999435424805,22.177000045776367 C33.349998474121094,16.094999313354492 36.11800003051758,8.48900032043457 36.11800003051758,0.2370000034570694 C36.11800003051758,-7.936999797821045 33.402000427246094,-15.47700023651123 28.823999404907227,-21.530000686645508 M21.900999069213867,-28.486000061035156 C15.826000213623047,-33.125 8.234000205993652,-35.88100051879883 0,-35.88100051879883 C-8.036999702453613,-35.88100051879883 -15.460000038146973,-33.25600051879883 -21.459999084472656,-28.816999435424805 M-16.274999618530273,-16.51300048828125 C-16.274999618530273,-16.51300048828125 -21.57699966430664,-21.759000778198242 -21.57699966430664,-21.759000778198242 M-21.332000732421875,21.434999465942383 C-21.332000732421875,21.434999465942383 -16.608999252319336,16.655000686645508 -16.608999252319336,16.655000686645508 M16.46299934387207,-16.21299934387207 C16.46299934387207,-16.21299934387207 21.141000747680664,-20.83300018310547 21.141000747680664,-20.83300018310547 M16.577999114990234,16.60700035095215 C16.577999114990234,16.60700035095215 21.055999755859375,21.141000747680664 21.055999755859375,21.141000747680664 M-0.057999998331069946,-23.076000213623047 C-12.932999610900879,-23.076000213623047 -23.371000289916992,-12.637999534606934 -23.371000289916992,0.2370000034570694 C-23.371000289916992,13.112000465393066 -12.932999610900879,23.549999237060547 -0.057999998331069946,23.549999237060547 C12.817000389099121,23.549999237060547 23.256000518798828,13.112000465393066 23.256000518798828,0.2370000034570694 C23.256000518798828,-12.637999534606934 12.817000389099121,-23.076000213623047 -0.057999998331069946,-23.076000213623047z"/></g></g><g transform="matrix(10,0,0,10,499.99896240234375,499.99798583984375)" opacity="1" style="display: block;"><g opacity="1" transform="matrix(1,0,0,1,0,0)"><path stroke="url(#__lottie_element_110)" stroke-linecap="butt" stroke-linejoin="miter" fill-opacity="0" stroke-miterlimit="10" stroke-opacity="1" stroke-width="2" d=" M-20.07200050354004,24.749000549316406 C-20.07200050354004,27.506000518798828 -22.30699920654297,29.739999771118164 -25.06399917602539,29.739999771118164 C-27.820999145507812,29.739999771118164 -30.055999755859375,27.506000518798828 -30.055999755859375,24.749000549316406 C-30.055999755859375,21.992000579833984 -27.820999145507812,19.756999969482422 -25.06399917602539,19.756999969482422 C-22.30699920654297,19.756999969482422 -20.07200050354004,21.992000579833984 -20.07200050354004,24.749000549316406z"/></g></g><g transform="matrix(10,0,0,10,500.0009765625,499.9960021972656)" opacity="1" style="display: block;"><g opacity="1" transform="matrix(1,0,0,1,0,0)"><path stroke="url(#__lottie_element_106)" stroke-linecap="butt" stroke-linejoin="miter" fill-opacity="0" stroke-miterlimit="10" stroke-opacity="1" stroke-width="2" d=" M29.448999404907227,24.81999969482422 C29.448999404907227,27.57699966430664 27.214000701904297,29.81100082397461 24.457000732421875,29.81100082397461 C21.700000762939453,29.81100082397461 19.46500015258789,27.57699966430664 19.46500015258789,24.81999969482422 C19.46500015258789,22.062999725341797 21.700000762939453,19.827999114990234 24.457000732421875,19.827999114990234 C27.214000701904297,19.827999114990234 29.448999404907227,22.062999725341797 29.448999404907227,24.81999969482422z"/></g></g><g transform="matrix(10,0,0,10,500.00299072265625,499.99700927734375)" opacity="1" style="display: block;"><g opacity="1" transform="matrix(1,0,0,1,0,0)"><path stroke="url(#__lottie_element_102)" stroke-linecap="butt" stroke-linejoin="miter" fill-opacity="0" stroke-miterlimit="10" stroke-opacity="1" stroke-width="2" d=" M29.70599937438965,-24.36199951171875 C29.70599937438965,-21.604999542236328 27.47100067138672,-19.371000289916992 24.714000701904297,-19.371000289916992 C21.957000732421875,-19.371000289916992 19.722999572753906,-21.604999542236328 19.722999572753906,-24.36199951171875 C19.722999572753906,-27.118999481201172 21.957000732421875,-29.354000091552734 24.714000701904297,-29.354000091552734 C27.47100067138672,-29.354000091552734 29.70599937438965,-27.118999481201172 29.70599937438965,-24.36199951171875z"/></g></g><g transform="matrix(10,0,0,10,499.9990234375,500.0039978027344)" opacity="1" style="display: block;"><g opacity="1" transform="matrix(1,0,0,1,0,0)"><path stroke="url(#__lottie_element_98)" stroke-linecap="butt" stroke-linejoin="miter" fill-opacity="0" stroke-miterlimit="10" stroke-opacity="1" stroke-width="2" d=" M-20.04599952697754,-25.340999603271484 C-20.04599952697754,-22.583999633789062 -22.2810001373291,-20.349000930786133 -25.038000106811523,-20.349000930786133 C-27.795000076293945,-20.349000930786133 -30.030000686645508,-22.583999633789062 -30.030000686645508,-25.340999603271484 C-30.030000686645508,-28.097999572753906 -27.795000076293945,-30.332000732421875 -25.038000106811523,-30.332000732421875 C-22.2810001373291,-30.332000732421875 -20.04599952697754,-28.097999572753906 -20.04599952697754,-25.340999603271484z"/></g></g></g></svg>