<svg xmlns="http://www.w3.org/2000/svg" viewBox="0 0 1000 1000" width="1000" height="1000" preserveAspectRatio="xMidYMid meet" style="width: 100%; height: 100%; transform: translate3d(0px, 0px, 0px); content-visibility: visible;"><defs><clipPath id="__lottie_element_120"><rect width="1000" height="1000" x="0" y="0"/></clipPath><filter id="__lottie_element_122" filterUnits="objectBoundingBox" x="0%" y="0%" width="100%" height="100%"><feComponentTransfer in="SourceGraphic"><feFuncA type="table" tableValues="1.0 0.0"/></feComponentTransfer></filter><mask id="__lottie_element_121" mask-type="alpha"><g filter="url(#__lottie_element_122)"><rect width="1000" height="1000" x="0" y="0" fill="#ffffff" opacity="0"/><g transform="matrix(10,0,0,10,500,500)" opacity="1" style="display: block;"><g opacity="1" transform="matrix(1,0,0,1,0,0)"><path stroke="url(#__lottie_element_125)" stroke-linecap="round" stroke-linejoin="miter" fill-opacity="0" stroke-miterlimit="10" stroke-opacity="1" stroke-width="1" d=" M35.00899887084961,26.270000457763672 C35.00899887084961,26.270000457763672 35.04800033569336,62.33000183105469 35.04800033569336,62.33000183105469 C35.04800033569336,64.5199966430664 33.268001556396484,66.29000091552734 31.077999114990234,66.29000091552734 C31.077999114990234,66.29000091552734 0.03799999877810478,66.29000091552734 0.03799999877810478,66.29000091552734 C0.03799999877810478,66.29000091552734 0.02800000086426735,66.27999877929688 0.02800000086426735,66.27999877929688 C0.02800000086426735,66.27999877929688 0.00800000037997961,66.29000091552734 0.00800000037997961,66.29000091552734 C0.00800000037997961,66.29000091552734 -31.02199935913086,66.29000091552734 -31.02199935913086,66.29000091552734 C-33.21200180053711,66.29000091552734 -34.992000579833984,64.5199966430664 -34.992000579833984,62.33000183105469 C-34.992000579833984,62.33000183105469 -35.03099822998047,26.270000457763672 -35.03099822998047,26.270000457763672 C-35.03099822998047,25.520000457763672 -34.42100143432617,24.920000076293945 -33.680999755859375,24.920000076293945 C-33.680999755859375,24.920000076293945 -15.230999946594238,24.920000076293945 -15.230999946594238,24.920000076293945 C-15.230999946594238,24.920000076293945 -9.25100040435791,27.65999984741211 -9.25100040435791,27.65999984741211 C-9.25100040435791,27.65999984741211 -6.790999889373779,28.780000686645508 -6.790999889373779,28.780000686645508 C-6.790999889373779,28.780000686645508 6.758999824523926,28.780000686645508 6.758999824523926,28.780000686645508 C6.758999824523926,28.780000686645508 9.218999862670898,27.65999984741211 9.218999862670898,27.65999984741211 C9.218999862670898,27.65999984741211 15.208999633789062,24.920000076293945 15.208999633789062,24.920000076293945 C15.208999633789062,24.920000076293945 33.64899826049805,24.920000076293945 33.64899826049805,24.920000076293945 C34.39899826049805,24.920000076293945 35.00899887084961,25.520000457763672 35.00899887084961,26.270000457763672z"/><path fill="url(#__lottie_element_126)" fill-opacity="1" d=" M35.00899887084961,26.270000457763672 C35.00899887084961,26.270000457763672 35.04800033569336,62.33000183105469 35.04800033569336,62.33000183105469 C35.04800033569336,64.5199966430664 33.268001556396484,66.29000091552734 31.077999114990234,66.29000091552734 C31.077999114990234,66.29000091552734 0.03799999877810478,66.29000091552734 0.03799999877810478,66.29000091552734 C0.03799999877810478,66.29000091552734 0.02800000086426735,66.27999877929688 0.02800000086426735,66.27999877929688 C0.02800000086426735,66.27999877929688 0.00800000037997961,66.29000091552734 0.00800000037997961,66.29000091552734 C0.00800000037997961,66.29000091552734 -31.02199935913086,66.29000091552734 -31.02199935913086,66.29000091552734 C-33.21200180053711,66.29000091552734 -34.992000579833984,64.5199966430664 -34.992000579833984,62.33000183105469 C-34.992000579833984,62.33000183105469 -35.03099822998047,26.270000457763672 -35.03099822998047,26.270000457763672 C-35.03099822998047,25.520000457763672 -34.42100143432617,24.920000076293945 -33.680999755859375,24.920000076293945 C-33.680999755859375,24.920000076293945 -15.230999946594238,24.920000076293945 -15.230999946594238,24.920000076293945 C-15.230999946594238,24.920000076293945 -9.25100040435791,27.65999984741211 -9.25100040435791,27.65999984741211 C-9.25100040435791,27.65999984741211 -6.790999889373779,28.780000686645508 -6.790999889373779,28.780000686645508 C-6.790999889373779,28.780000686645508 6.758999824523926,28.780000686645508 6.758999824523926,28.780000686645508 C6.758999824523926,28.780000686645508 9.218999862670898,27.65999984741211 9.218999862670898,27.65999984741211 C9.218999862670898,27.65999984741211 15.208999633789062,24.920000076293945 15.208999633789062,24.920000076293945 C15.208999633789062,24.920000076293945 33.64899826049805,24.920000076293945 33.64899826049805,24.920000076293945 C34.39899826049805,24.920000076293945 35.00899887084961,25.520000457763672 35.00899887084961,26.270000457763672z"/></g></g></g></mask><linearGradient id="__lottie_element_125" spreadMethod="pad" gradientUnits="userSpaceOnUse" x1="-35.73099899291992" y1="10.5" x2="35.305999755859375" y2="10.5"><stop offset="0%" stop-color="rgb(184,79,248)"/><stop offset="50%" stop-color="rgb(157,59,243)"/><stop offset="100%" stop-color="rgb(130,39,238)"/></linearGradient><linearGradient id="__lottie_element_126" spreadMethod="pad" gradientUnits="userSpaceOnUse" x1="-35.73099899291992" y1="30.5" x2="34.308998107910156" y2="30.5"><stop offset="0%" stop-color="rgb(184,79,248)"/><stop offset="50%" stop-color="rgb(157,59,243)"/><stop offset="100%" stop-color="rgb(130,39,238)"/></linearGradient><linearGradient id="__lottie_element_130" spreadMethod="pad" gradientUnits="userSpaceOnUse" x1="-16.731000900268555" y1="-12.5" x2="15.508999824523926" y2="-12.5"><stop offset="0%" stop-color="rgb(128,205,253)"/><stop offset="50%" stop-color="rgb(100,182,251)"/><stop offset="100%" stop-color="rgb(73,159,249)"/></linearGradient><linearGradient id="__lottie_element_131" spreadMethod="pad" gradientUnits="userSpaceOnUse" x1="-14.730999946594238" y1="-0.5" x2="-9.598999977111816" y2="-0.5"><stop offset="0%" stop-color="rgb(128,205,253)"/><stop offset="50%" stop-color="rgb(100,182,251)"/><stop offset="100%" stop-color="rgb(73,159,249)"/></linearGradient><linearGradient id="__lottie_element_132" spreadMethod="pad" gradientUnits="userSpaceOnUse" x1="-5.730999946594238" y1="-29.5" x2="3.933000087738037" y2="-29.5"><stop offset="0%" stop-color="rgb(128,205,253)"/><stop offset="50%" stop-color="rgb(100,182,251)"/><stop offset="100%" stop-color="rgb(73,159,249)"/></linearGradient><linearGradient id="__lottie_element_133" spreadMethod="pad" gradientUnits="userSpaceOnUse" x1="-4.730999946594238" y1="-17.5" x2="4.297999858856201" y2="-17.5"><stop offset="0%" stop-color="rgb(128,205,253)"/><stop offset="50%" stop-color="rgb(100,182,251)"/><stop offset="100%" stop-color="rgb(73,159,249)"/></linearGradient><linearGradient id="__lottie_element_134" spreadMethod="pad" gradientUnits="userSpaceOnUse" x1="-5.730999946594238" y1="5.5" x2="5.2769999504089355" y2="5.5"><stop offset="0%" stop-color="rgb(128,205,253)"/><stop offset="50%" stop-color="rgb(100,182,251)"/><stop offset="100%" stop-color="rgb(73,159,249)"/></linearGradient><linearGradient id="__lottie_element_135" spreadMethod="pad" gradientUnits="userSpaceOnUse" x1="8.269000053405762" y1="-0.5" x2="13.394000053405762" y2="-0.5"><stop offset="0%" stop-color="rgb(128,205,253)"/><stop offset="50%" stop-color="rgb(100,182,251)"/><stop offset="100%" stop-color="rgb(73,159,249)"/></linearGradient><linearGradient id="__lottie_element_139" spreadMethod="pad" gradientUnits="userSpaceOnUse" x1="-35.73099899291992" y1="10.5" x2="35.305999755859375" y2="10.5"><stop offset="0%" stop-color="rgb(184,79,248)"/><stop offset="50%" stop-color="rgb(157,59,243)"/><stop offset="100%" stop-color="rgb(130,39,238)"/></linearGradient><filter id="__lottie_element_141" filterUnits="objectBoundingBox" x="0%" y="0%" width="100%" height="100%"><feComponentTransfer in="SourceGraphic"><feFuncA type="table" tableValues="1.0 0.0"/></feComponentTransfer></filter><mask id="__lottie_element_140" mask-type="alpha"><g filter="url(#__lottie_element_141)"><rect width="1000" height="1000" x="0" y="0" fill="#ffffff" opacity="0"/><g transform="matrix(10,0,0,10,500,500)" opacity="1" style="display: block;"><g opacity="1" transform="matrix(1,0,0,1,0,0)"><path stroke="url(#__lottie_element_144)" stroke-linecap="round" stroke-linejoin="miter" fill-opacity="0" stroke-miterlimit="10" stroke-opacity="1" stroke-width="1" d=" M35.00899887084961,26.270000457763672 C35.00899887084961,26.270000457763672 35.04800033569336,62.33000183105469 35.04800033569336,62.33000183105469 C35.04800033569336,64.5199966430664 33.268001556396484,66.29000091552734 31.077999114990234,66.29000091552734 C31.077999114990234,66.29000091552734 0.03799999877810478,66.29000091552734 0.03799999877810478,66.29000091552734 C0.03799999877810478,66.29000091552734 0.02800000086426735,66.27999877929688 0.02800000086426735,66.27999877929688 C0.02800000086426735,66.27999877929688 0.00800000037997961,66.29000091552734 0.00800000037997961,66.29000091552734 C0.00800000037997961,66.29000091552734 -31.02199935913086,66.29000091552734 -31.02199935913086,66.29000091552734 C-33.21200180053711,66.29000091552734 -34.992000579833984,64.5199966430664 -34.992000579833984,62.33000183105469 C-34.992000579833984,62.33000183105469 -35.03099822998047,26.270000457763672 -35.03099822998047,26.270000457763672 C-35.03099822998047,25.520000457763672 -34.42100143432617,24.920000076293945 -33.680999755859375,24.920000076293945 C-33.680999755859375,24.920000076293945 -15.230999946594238,24.920000076293945 -15.230999946594238,24.920000076293945 C-15.230999946594238,24.920000076293945 -9.25100040435791,27.65999984741211 -9.25100040435791,27.65999984741211 C-9.25100040435791,27.65999984741211 -6.790999889373779,28.780000686645508 -6.790999889373779,28.780000686645508 C-6.790999889373779,28.780000686645508 6.758999824523926,28.780000686645508 6.758999824523926,28.780000686645508 C6.758999824523926,28.780000686645508 9.218999862670898,27.65999984741211 9.218999862670898,27.65999984741211 C9.218999862670898,27.65999984741211 15.208999633789062,24.920000076293945 15.208999633789062,24.920000076293945 C15.208999633789062,24.920000076293945 33.64899826049805,24.920000076293945 33.64899826049805,24.920000076293945 C34.39899826049805,24.920000076293945 35.00899887084961,25.520000457763672 35.00899887084961,26.270000457763672z"/><path fill="url(#__lottie_element_145)" fill-opacity="1" d=" M35.00899887084961,26.270000457763672 C35.00899887084961,26.270000457763672 35.04800033569336,62.33000183105469 35.04800033569336,62.33000183105469 C35.04800033569336,64.5199966430664 33.268001556396484,66.29000091552734 31.077999114990234,66.29000091552734 C31.077999114990234,66.29000091552734 0.03799999877810478,66.29000091552734 0.03799999877810478,66.29000091552734 C0.03799999877810478,66.29000091552734 0.02800000086426735,66.27999877929688 0.02800000086426735,66.27999877929688 C0.02800000086426735,66.27999877929688 0.00800000037997961,66.29000091552734 0.00800000037997961,66.29000091552734 C0.00800000037997961,66.29000091552734 -31.02199935913086,66.29000091552734 -31.02199935913086,66.29000091552734 C-33.21200180053711,66.29000091552734 -34.992000579833984,64.5199966430664 -34.992000579833984,62.33000183105469 C-34.992000579833984,62.33000183105469 -35.03099822998047,26.270000457763672 -35.03099822998047,26.270000457763672 C-35.03099822998047,25.520000457763672 -34.42100143432617,24.920000076293945 -33.680999755859375,24.920000076293945 C-33.680999755859375,24.920000076293945 -15.230999946594238,24.920000076293945 -15.230999946594238,24.920000076293945 C-15.230999946594238,24.920000076293945 -9.25100040435791,27.65999984741211 -9.25100040435791,27.65999984741211 C-9.25100040435791,27.65999984741211 -6.790999889373779,28.780000686645508 -6.790999889373779,28.780000686645508 C-6.790999889373779,28.780000686645508 6.758999824523926,28.780000686645508 6.758999824523926,28.780000686645508 C6.758999824523926,28.780000686645508 9.218999862670898,27.65999984741211 9.218999862670898,27.65999984741211 C9.218999862670898,27.65999984741211 15.208999633789062,24.920000076293945 15.208999633789062,24.920000076293945 C15.208999633789062,24.920000076293945 33.64899826049805,24.920000076293945 33.64899826049805,24.920000076293945 C34.39899826049805,24.920000076293945 35.00899887084961,25.520000457763672 35.00899887084961,26.270000457763672z"/></g></g></g></mask><linearGradient id="__lottie_element_144" spreadMethod="pad" gradientUnits="userSpaceOnUse" x1="-35.73099899291992" y1="10.5" x2="35.305999755859375" y2="10.5"><stop offset="0%" stop-color="rgb(184,79,248)"/><stop offset="50%" stop-color="rgb(157,59,243)"/><stop offset="100%" stop-color="rgb(130,39,238)"/></linearGradient><linearGradient id="__lottie_element_145" spreadMethod="pad" gradientUnits="userSpaceOnUse" x1="-35.73099899291992" y1="30.5" x2="34.308998107910156" y2="30.5"><stop offset="0%" stop-color="rgb(184,79,248)"/><stop offset="50%" stop-color="rgb(157,59,243)"/><stop offset="100%" stop-color="rgb(130,39,238)"/></linearGradient><linearGradient id="__lottie_element_149" spreadMethod="pad" gradientUnits="userSpaceOnUse" x1="-24.731000900268555" y1="18.5" x2="22.98900032043457" y2="18.5"><stop offset="0%" stop-color="rgb(184,79,248)"/><stop offset="50%" stop-color="rgb(157,59,243)"/><stop offset="100%" stop-color="rgb(130,39,238)"/></linearGradient></defs><g clip-path="url(#__lottie_element_120)"><g mask="url(#__lottie_element_140)" style="display: block;"><g transform="matrix(10,0,0,10,500,500)" opacity="1"><g opacity="1" transform="matrix(1,0,0,1,0,0)"><path stroke="url(#__lottie_element_149)" stroke-linecap="round" stroke-linejoin="miter" fill-opacity="0" stroke-miterlimit="10" stroke-opacity="1" stroke-width="1" d=" M-2.11899995803833,11.579999923706055 C-2.11899995803833,11.579999923706055 -2.11899995803833,14.619999885559082 -2.11899995803833,14.619999885559082 C-2.11899995803833,14.869999885559082 -2.2090001106262207,15.100000381469727 -2.3889999389648438,15.279999732971191 C-2.559000015258789,15.449999809265137 -2.7990000247955322,15.539999961853027 -3.0390000343322754,15.539999961853027 C-4.209000110626221,15.539999961853027 -5.169000148773193,16.5 -5.169000148773193,17.670000076293945 C-5.169000148773193,17.920000076293945 -5.269000053405762,18.15999984741211 -5.428999900817871,18.329999923706055 C-5.609000205993652,18.5 -5.839000225067139,18.600000381469727 -6.089000225067139,18.600000381469727 C-6.839000225067139,18.600000381469727 -7.548999786376953,18.829999923706055 -8.159000396728516,19.25 C-8.769000053405762,19.670000076293945 -9.23900032043457,20.270000457763672 -9.508999824523926,20.969999313354492 C-9.609000205993652,21.290000915527344 -9.878999710083008,21.510000228881836 -10.189000129699707,21.56999969482422 C-10.49899959564209,21.639999389648438 -10.829000473022461,21.520000457763672 -11.059000015258789,21.290000915527344 C-11.708999633789062,20.59000015258789 -12.58899974822998,20.18000030517578 -13.548999786376953,20.149999618530273 C-14.49899959564209,20.06999969482422 -15.418999671936035,20.420000076293945 -16.138999938964844,21.059999465942383 C-16.48900032043457,21.3700008392334 -17.009000778198242,21.3700008392334 -17.368999481201172,21.059999465942383 C-18.07900047302246,20.420000076293945 -18.999000549316406,20.100000381469727 -19.929000854492188,20.1299991607666 C-20.878999710083008,20.170000076293945 -21.768999099731445,20.56999969482422 -22.41900062561035,21.239999771118164 C-23.07900047302246,21.920000076293945 -23.43899917602539,22.81999969482422 -23.43899917602539,23.770000457763672 C-23.43899917602539,23.770000457763672 -23.43899917602539,24.3700008392334 -23.43899917602539,24.3700008392334 M2.121000051498413,11.579999923706055 C2.121000051498413,11.579999923706055 2.121000051498413,14.619999885559082 2.121000051498413,14.619999885559082 C2.121000051498413,14.869999885559082 2.2109999656677246,15.100000381469727 2.3910000324249268,15.279999732971191 C2.561000108718872,15.449999809265137 2.8010001182556152,15.539999961853027 3.0409998893737793,15.539999961853027 C4.210999965667725,15.539999961853027 5.171000003814697,16.5 5.171000003814697,17.670000076293945 C5.171000003814697,17.920000076293945 5.270999908447266,18.15999984741211 5.431000232696533,18.329999923706055 C5.611000061035156,18.5 5.841000080108643,18.600000381469727 6.091000080108643,18.600000381469727 C6.841000080108643,18.600000381469727 7.551000118255615,18.829999923706055 8.16100025177002,19.25 C8.770999908447266,19.670000076293945 9.241000175476074,20.270000457763672 9.51099967956543,20.969999313354492 C9.611000061035156,21.290000915527344 9.880999565124512,21.510000228881836 10.190999984741211,21.56999969482422 C10.50100040435791,21.639999389648438 10.831000328063965,21.520000457763672 11.060999870300293,21.290000915527344 C11.711000442504883,20.59000015258789 12.590999603271484,20.18000030517578 13.550999641418457,20.149999618530273 C14.50100040435791,20.06999969482422 15.420999526977539,20.420000076293945 16.141000747680664,21.059999465942383 C16.490999221801758,21.3700008392334 17.01099967956543,21.3700008392334 17.371000289916992,21.059999465942383 C18.08099937438965,20.420000076293945 19.000999450683594,20.100000381469727 19.930999755859375,20.1299991607666 C20.881000518798828,20.170000076293945 21.770999908447266,20.56999969482422 22.42099952697754,21.239999771118164 C23.08099937438965,21.920000076293945 23.44099998474121,22.81999969482422 23.44099998474121,23.770000457763672 C23.44099998474121,23.770000457763672 23.44099998474121,24.3700008392334 23.44099998474121,24.3700008392334"/><g opacity="1" transform="matrix(1,0,0,1,0,0)"/><g opacity="1" transform="matrix(1,0,0,1,0,0)"/></g></g></g><g transform="matrix(10,0,0,10,500,500)" opacity="1" style="display: block;"><g opacity="1" transform="matrix(1,0,0,1,0,0)"><path stroke="url(#__lottie_element_139)" stroke-linecap="round" stroke-linejoin="miter" fill-opacity="0" stroke-miterlimit="10" stroke-opacity="1" stroke-width="1" d=" M0.0010000000474974513,35.992000579833984 C0.0010000000474974513,35.992000579833984 -31.065000534057617,35.992000579833984 -31.065000534057617,35.992000579833984 C-33.255001068115234,35.992000579833984 -35.03099822998047,34.21699905395508 -35.03099822998047,32.027000427246094 C-35.03099822998047,32.027000427246094 -35.03099822998047,26.270000457763672 -35.03099822998047,26.270000457763672 C-35.03099822998047,25.523000717163086 -34.42599868774414,24.917999267578125 -33.67900085449219,24.917999267578125 C-33.67900085449219,24.917999267578125 -31.740999221801758,24.917999267578125 -31.740999221801758,24.917999267578125 C-31.740999221801758,24.917999267578125 -31.740999221801758,-13.991999626159668 -31.740999221801758,-13.991999626159668 C-31.740999221801758,-15.565999984741211 -30.46500015258789,-16.841999053955078 -28.891000747680664,-16.841999053955078 C-28.891000747680664,-16.841999053955078 -14.310999870300293,-16.841999053955078 -14.310999870300293,-16.841999053955078 M-0.026000000536441803,35.992000579833984 C-0.026000000536441803,35.992000579833984 31.040000915527344,35.992000579833984 31.040000915527344,35.992000579833984 C33.22999954223633,35.992000579833984 35.00600051879883,34.21699905395508 35.00600051879883,32.027000427246094 C35.00600051879883,32.027000427246094 35.00600051879883,26.270000457763672 35.00600051879883,26.270000457763672 C35.00600051879883,25.523000717163086 34.4010009765625,24.917999267578125 33.65399932861328,24.917999267578125 C33.65399932861328,24.917999267578125 31.715999603271484,24.917999267578125 31.715999603271484,24.917999267578125 C31.715999603271484,24.917999267578125 31.715999603271484,-13.991999626159668 31.715999603271484,-13.991999626159668 C31.715999603271484,-15.565999984741211 30.440000534057617,-16.841999053955078 28.865999221801758,-16.841999053955078 C28.865999221801758,-16.841999053955078 14.28600025177002,-16.841999053955078 14.28600025177002,-16.841999053955078 M-31.740999221801758,24.917999267578125 C-31.740999221801758,24.917999267578125 -15.232999801635742,24.917999267578125 -15.232999801635742,24.917999267578125 C-15.232999801635742,24.917999267578125 -6.788000106811523,28.784000396728516 -6.788000106811523,28.784000396728516 C-6.788000106811523,28.784000396728516 -0.0010000000474974513,28.784000396728516 -0.0010000000474974513,28.784000396728516 M31.714000701904297,24.917999267578125 C31.714000701904297,24.917999267578125 15.206000328063965,24.917999267578125 15.206000328063965,24.917999267578125 C15.206000328063965,24.917999267578125 6.76200008392334,28.784000396728516 6.76200008392334,28.784000396728516 C6.76200008392334,28.784000396728516 -0.026000000536441803,28.784000396728516 -0.026000000536441803,28.784000396728516"/></g></g><g mask="url(#__lottie_element_121)" style="display: block;"><g transform="matrix(10,0,0,10,500,500)" opacity="1"><g opacity="1" transform="matrix(1,0,0,1,0,0)"><path stroke="url(#__lottie_element_130)" stroke-linecap="butt" stroke-linejoin="miter" fill-opacity="0" stroke-miterlimit="10" stroke-opacity="1" stroke-width="1" d=" M15.58899974822998,3.0929999351501465 C15.58899974822998,3.0929999351501465 15.58899974822998,-2.3459999561309814 15.58899974822998,-2.3459999561309814 C15.58899974822998,-5.806000232696533 13.418999671936035,-7.421999931335449 10.95300006866455,-9.276000022888184 C10.95300006866455,-9.276000022888184 9.968000411987305,-9.991999626159668 9.968000411987305,-9.991999626159668 C9.968000411987305,-9.991999626159668 9.729999542236328,-10.163999557495117 9.729999542236328,-10.163999557495117 C9.729999542236328,-10.163999557495117 9.729999542236328,-16.731000900268555 9.729999542236328,-16.731000900268555 C9.739999771118164,-20.124000549316406 8.89799976348877,-23.459999084472656 7.291999816894531,-26.45199966430664 C5.685999870300293,-29.444000244140625 3.3540000915527344,-31.986000061035156 0.5249999761581421,-33.86899948120117 C0.3720000088214874,-33.96500015258789 0.20000000298023224,-34.012001037597656 0.02800000086426735,-34.012001037597656 C-0.14399999380111694,-34.012001037597656 -0.31700000166893005,-33.96500015258789 -0.46000000834465027,-33.86899948120117 C-3.308000087738037,-31.986000061035156 -5.639999866485596,-29.444000244140625 -7.255000114440918,-26.45199966430664 C-8.869999885559082,-23.469999313354492 -9.720999717712402,-20.124000549316406 -9.730999946594238,-16.731000900268555 C-9.730999946594238,-16.731000900268555 -9.730999946594238,-10.13599967956543 -9.730999946594238,-10.13599967956543 C-9.730999946594238,-10.13599967956543 -9.970000267028809,-9.96399974822998 -9.970000267028809,-9.96399974822998 C-9.970000267028809,-9.96399974822998 -10.897000312805176,-9.276000022888184 -10.897000312805176,-9.276000022888184 C-13.430000305175781,-7.440999984741211 -15.619000434875488,-5.806000232696533 -15.619000434875488,-2.3459999561309814 C-15.619000434875488,-2.3459999561309814 -15.619000434875488,7.928999900817871 -15.619000434875488,7.928999900817871 C-15.619000434875488,8.168000221252441 -15.52299976348877,8.39799976348877 -15.361000061035156,8.569999694824219 C-15.189000129699707,8.732000350952148 -14.968999862670898,8.817999839782715 -14.729999542236328,8.817999839782715 C-14.319000244140625,8.817999839782715 -14.3100004196167,8.817999839782715 -11.508999824523926,5.988999843597412 C-11.508999824523926,5.988999843597412 -8.640999794006348,3.111999988555908 -8.640999794006348,3.111999988555908 C-8.640999794006348,3.111999988555908 -8.468999862670898,2.940000057220459 -8.468999862670898,2.940000057220459 C-8.468999862670898,2.940000057220459 -6.7779998779296875,2.940000057220459 -6.7779998779296875,2.940000057220459 C-6.7779998779296875,2.940000057220459 -6.7779998779296875,7.928999900817871 -6.7779998779296875,7.928999900817871 C-6.7779998779296875,8.053000450134277 -6.757999897003174,8.168000221252441 -6.71999979019165,8.27299976348877 C-6.671999931335449,8.387999534606934 -6.605000019073486,8.484000205993652 -6.5289998054504395,8.569999694824219 C-6.442999839782715,8.645999908447266 -6.3379998207092285,8.713000297546387 -6.232999801635742,8.76099967956543 C-6.118000030517578,8.798999786376953 -6.004000186920166,8.82800006866455 -5.888999938964844,8.817999839782715 C-5.888999938964844,8.817999839782715 5.877999782562256,8.817999839782715 5.877999782562256,8.817999839782715 C6.10699987411499,8.817999839782715 6.335999965667725,8.732000350952148 6.499000072479248,8.569999694824219 C6.671000003814697,8.39799976348877 6.765999794006348,8.168000221252441 6.765999794006348,7.928999900817871 C6.765999794006348,7.928999900817871 6.765999794006348,2.940000057220459 6.765999794006348,2.940000057220459 C6.765999794006348,2.940000057220459 7.636000156402588,2.940000057220459 7.636000156402588,2.940000057220459 C8.40999984741211,2.8540000915527344 8.487000465393066,2.940000057220459 10.628000259399414,5.110000133514404 C11.411999702453613,5.913000106811523 12.51099967956543,7.031000137329102 14.107000350952148,8.579000473022461 C14.230999946594238,8.70300006866455 14.383999824523926,8.779999732971191 14.565999984741211,8.817999839782715 C14.73799991607666,8.847000122070312 14.91100025177002,8.82800006866455 15.072999954223633,8.76099967956543 C15.645999908447266,8.51200008392334 15.664999961853027,8.493000030517578 15.58899974822998,3.0929999351501465z"/></g><g opacity="1" transform="matrix(1,0,0,1,0,0)"><path stroke="url(#__lottie_element_131)" stroke-linecap="butt" stroke-linejoin="miter" fill-opacity="0" stroke-miterlimit="10" stroke-opacity="1" stroke-width="1" d=" M-9.769000053405762,1.6970000267028809 C-9.769000053405762,1.6970000267028809 -13.869999885559082,5.816999912261963 -13.869999885559082,5.816999912261963 C-13.869999885559082,5.816999912261963 -13.869999885559082,1.2480000257492065 -13.869999885559082,1.2480000257492065 C-13.869999885559082,-4.409999847412109 -13.869999885559082,-4.744999885559082 -10.657999992370605,-7.182000160217285 C-10.657999992370605,-7.182000160217285 -9.741000175476074,-7.869999885559082 -9.741000175476074,-7.869999885559082 C-9.741000175476074,-7.869999885559082 -9.769000053405762,1.6970000267028809 -9.769000053405762,1.6970000267028809z"/></g><g opacity="1" transform="matrix(1,0,0,1,0,0)"><path stroke="url(#__lottie_element_132)" stroke-linecap="butt" stroke-linejoin="miter" fill-opacity="0" stroke-miterlimit="10" stroke-opacity="1" stroke-width="1" d=" M-3.700000047683716,-28.66900062561035 C-2.7149999141693115,-29.86400032043457 -1.6069999933242798,-30.924999237060547 -0.37400001287460327,-31.851999282836914 C-0.37400001287460327,-31.851999282836914 -0.019999999552965164,-32.119998931884766 -0.019999999552965164,-32.119998931884766 C-0.019999999552965164,-32.119998931884766 0.3240000009536743,-31.851999282836914 0.3240000009536743,-31.851999282836914 C1.5570000410079956,-30.924999237060547 2.674999952316284,-29.86400032043457 3.6500000953674316,-28.66900062561035 C3.6500000953674316,-28.66900062561035 4.071000099182129,-28.163000106811523 4.071000099182129,-28.163000106811523 C4.071000099182129,-28.163000106811523 3.506999969482422,-27.798999786376953 3.506999969482422,-27.798999786376953 C2.446000099182129,-27.14900016784668 1.2230000495910645,-26.80500030517578 -0.019999999552965164,-26.80500030517578 C-1.2719999551773071,-26.80500030517578 -2.494999885559082,-27.14900016784668 -3.555999994277954,-27.798999786376953 C-3.555999994277954,-27.798999786376953 -4.111000061035156,-28.163000106811523 -4.111000061035156,-28.163000106811523 C-4.111000061035156,-28.163000106811523 -3.700000047683716,-28.66900062561035 -3.700000047683716,-28.66900062561035z"/></g><g opacity="1" transform="matrix(1,0,0,1,0,0)"><path stroke="url(#__lottie_element_133)" stroke-linecap="butt" stroke-linejoin="miter" fill-opacity="0" stroke-miterlimit="10" stroke-opacity="1" stroke-width="1" d=" M4.013999938964844,-17.457000732421875 C4.013999938964844,-16.395999908447266 3.5929999351501465,-15.37399959564209 2.8380000591278076,-14.619000434875488 C2.072999954223633,-13.892999649047852 1.059999942779541,-13.480999946594238 -0.0010000000474974513,-13.480999946594238 C-1.062000036239624,-13.480999946594238 -2.075000047683716,-13.892999649047852 -2.8399999141693115,-14.619000434875488 C-3.5950000286102295,-15.37399959564209 -4.014999866485596,-16.395999908447266 -4.014999866485596,-17.457000732421875 C-4.014999866485596,-18.527999877929688 -3.5950000286102295,-19.551000595092773 -2.8399999141693115,-20.305999755859375 C-2.4670000076293945,-20.687999725341797 -2.0269999504089355,-20.985000610351562 -1.5399999618530273,-21.19499969482422 C-1.0529999732971191,-21.405000686645508 -0.5260000228881836,-21.510000228881836 0.008999999612569809,-21.520000457763672 C0.5350000262260437,-21.510000228881836 1.0609999895095825,-21.405000686645508 1.5479999780654907,-21.19499969482422 C2.0350000858306885,-20.993999481201172 2.4749999046325684,-20.687999725341797 2.8380000591278076,-20.305999755859375 C3.5929999351501465,-19.551000595092773 4.013999938964844,-18.527999877929688 4.013999938964844,-17.457000732421875z"/></g><g opacity="1" transform="matrix(1,0,0,1,0,0)"><path stroke="url(#__lottie_element_134)" stroke-linecap="butt" stroke-linejoin="miter" fill-opacity="0" stroke-miterlimit="10" stroke-opacity="1" stroke-width="1" d=" M4.979000091552734,7.039999961853027 C4.979000091552734,7.039999961853027 -5.0279998779296875,7.039999961853027 -5.0279998779296875,7.039999961853027 C-5.0279998779296875,7.039999961853027 -5.0279998779296875,2.940000057220459 -5.0279998779296875,2.940000057220459 C-5.0279998779296875,2.940000057220459 4.979000091552734,2.940000057220459 4.979000091552734,2.940000057220459 C4.979000091552734,2.940000057220459 4.979000091552734,7.039999961853027 4.979000091552734,7.039999961853027z"/></g><g opacity="1" transform="matrix(1,0,0,1,0,0)"><path stroke="url(#__lottie_element_135)" stroke-linecap="butt" stroke-linejoin="miter" fill-opacity="0" stroke-miterlimit="10" stroke-opacity="1" stroke-width="1" d=" M13.84000015258789,1.6019999980926514 C13.84000015258789,1.6019999980926514 13.84000015258789,5.816999912261963 13.84000015258789,5.816999912261963 C13.84000015258789,5.816999912261963 9.720000267028809,1.7359999418258667 9.720000267028809,1.7359999418258667 C9.720000267028809,1.7359999418258667 9.720000267028809,-7.908999919891357 9.720000267028809,-7.908999919891357 C9.720000267028809,-7.908999919891357 10.88599967956543,-7.086999893188477 10.88599967956543,-7.086999893188477 C13.868000030517578,-4.793000221252441 13.869000434875488,-4.572999954223633 13.84000015258789,1.6019999980926514z"/></g></g></g></g></svg>