<svg width="80" height="80" viewBox="0 0 84 84" fill="none" xmlns="http://www.w3.org/2000/svg">
<path fill-rule="evenodd" clip-rule="evenodd" d="M42.055 82H41.9976C19.9362 82 2.0335 64.1297 2 42.0574C2 41.2773 2.07178 40.5212 2.11485 39.7554C2.14835 39.1524 2.14357 38.5351 2.20578 37.9416C2.30149 36.9797 2.47377 36.0368 2.63647 35.094C2.69869 34.7255 2.73219 34.3427 2.80875 33.9789C3.03846 32.8399 3.33995 31.7248 3.66537 30.6241C3.70844 30.4661 3.73716 30.3034 3.78501 30.1551C8.82898 13.8641 23.9992 2.02393 41.945 2H42.189C64.1882 2.10529 81.9952 19.9612 81.9952 41.9856L82 81.9426L42.055 82Z" stroke="url(#paint0_linear_441_8404)" stroke-width="3"/>
<defs>
<linearGradient id="paint0_linear_441_8404" x1="68.5697" y1="96.9733" x2="98.5163" y2="27.6544" gradientUnits="userSpaceOnUse">
<stop stop-color="#B84FF8"/>
<stop offset="1" stop-color="#8227EE"/>
</linearGradient>
</defs>
</svg>
