<svg width="213" height="55" viewBox="0 0 213 55" fill="none" xmlns="http://www.w3.org/2000/svg">
<path d="M70.7344 17.2134C71.6916 17.2134 72.5649 17.3141 73.3542 17.4989C74.1435 17.6836 74.7649 17.8851 75.1847 18.0531L74.1939 22.1004C73.7405 21.8989 73.2534 21.7477 72.716 21.647C72.1786 21.5462 71.6916 21.4958 71.2382 21.4958C70.6336 21.4958 70.113 21.5798 69.6931 21.7477C69.2733 21.9157 68.9374 22.1508 68.7023 22.4531C68.4672 22.7554 68.2992 23.108 68.1985 23.5111C68.0977 23.9141 68.0473 24.3676 68.0473 24.8378V25.7279H74.3115V29.9431H68.0473V43.6134H62.9756V24.7538C62.9756 22.4363 63.6305 20.6057 64.9237 19.2454C66.2504 17.8851 68.1817 17.2134 70.7344 17.2134Z" fill="#3F3E40"/>
<path d="M92.6169 42.9919C91.7604 43.2438 90.652 43.4789 89.2749 43.6972C87.9146 43.9155 86.4871 44.0163 84.9925 44.0163C83.481 44.0163 82.2047 43.8148 81.197 43.4117C80.1894 43.0086 79.3833 42.4377 78.7955 41.6987C78.2077 40.9598 77.7879 40.0865 77.536 39.0621C77.2841 38.0377 77.1665 36.9125 77.1665 35.6865V25.7109H82.2383V35.0651C82.2383 36.6941 82.4566 37.8697 82.8764 38.6086C83.3131 39.3308 84.1192 39.7003 85.2947 39.7003C85.6642 39.7003 86.0505 39.6835 86.4535 39.6499C86.8566 39.6163 87.226 39.5827 87.5451 39.5323V25.7109H92.6169V42.9919Z" fill="#3F3E40"/>
<path d="M114.113 34.629C114.113 36.0397 113.912 37.316 113.509 38.4916C113.106 39.6672 112.518 40.658 111.745 41.4809C110.973 42.3038 110.049 42.942 108.974 43.3954C107.9 43.8488 106.69 44.084 105.347 44.084C104.037 44.084 102.828 43.8488 101.753 43.3954C100.678 42.942 99.7545 42.3038 98.982 41.4809C98.2095 40.658 97.6049 39.6504 97.185 38.4916C96.7484 37.316 96.5469 36.0397 96.5469 34.629C96.5469 33.2183 96.7652 31.942 97.2018 30.7832C97.6385 29.6244 98.2599 28.6336 99.0324 27.8275C99.8217 27.0046 100.745 26.3832 101.82 25.9298C102.895 25.4763 104.071 25.2412 105.347 25.2412C106.64 25.2412 107.832 25.4595 108.907 25.9298C109.982 26.3832 110.906 27.0214 111.678 27.8275C112.451 28.6504 113.055 29.6244 113.475 30.7832C113.895 31.942 114.113 33.2183 114.113 34.629ZM108.941 34.629C108.941 33.0672 108.622 31.8412 108 30.9343C107.379 30.0443 106.489 29.5908 105.33 29.5908C104.171 29.5908 103.281 30.0443 102.643 30.9343C102.005 31.8244 101.686 33.0672 101.686 34.629C101.686 36.1908 102.005 37.4336 102.643 38.3572C103.281 39.2809 104.171 39.7343 105.33 39.7343C106.489 39.7343 107.379 39.2809 108 38.3572C108.638 37.4336 108.941 36.1908 108.941 34.629Z" fill="#3F3E40"/>
<path d="M128.807 30.1952C128.354 30.0777 127.816 29.9601 127.212 29.8426C126.607 29.725 125.936 29.6578 125.23 29.6578C124.911 29.6578 124.525 29.6914 124.088 29.7418C123.652 29.7922 123.316 29.8594 123.081 29.9265V43.5968H118.009V26.6685C118.916 26.3494 119.99 26.0471 121.216 25.7616C122.459 25.4761 123.836 25.3418 125.348 25.3418C125.616 25.3418 125.952 25.3586 126.339 25.3922C126.725 25.4258 127.111 25.4761 127.497 25.5265C127.884 25.5769 128.27 25.6441 128.656 25.7281C129.042 25.812 129.378 25.896 129.647 26.0136L128.807 30.1952Z" fill="#3F3E40"/>
<path d="M137.927 20.5383C137.927 21.462 137.624 22.2009 137.02 22.7383C136.415 23.2757 135.71 23.5444 134.887 23.5444C134.064 23.5444 133.359 23.2757 132.754 22.7383C132.149 22.2009 131.847 21.4788 131.847 20.5383C131.847 19.6147 132.149 18.8757 132.754 18.3383C133.359 17.8009 134.064 17.5322 134.887 17.5322C135.71 17.5322 136.415 17.8009 137.02 18.3383C137.624 18.8757 137.927 19.6147 137.927 20.5383ZM137.456 43.5964H132.385V25.7109H137.456V43.5964Z" fill="#3F3E40"/>
<path d="M141.369 34.6626C141.369 33.3695 141.571 32.1435 141.991 31.0015C142.41 29.8595 143.015 28.8519 143.804 28.0122C144.594 27.1557 145.568 26.484 146.693 25.9969C147.818 25.4931 149.111 25.2412 150.572 25.2412C151.529 25.2412 152.403 25.3252 153.192 25.4931C153.981 25.6611 154.754 25.913 155.51 26.2321L154.452 30.2794C153.981 30.0946 153.461 29.9435 152.89 29.8091C152.319 29.6748 151.681 29.6076 150.992 29.6076C149.497 29.6076 148.372 30.0779 147.633 31.0015C146.894 31.9252 146.525 33.1511 146.525 34.6794C146.525 36.2916 146.878 37.5343 147.566 38.4244C148.255 39.3145 149.464 39.7511 151.194 39.7511C151.798 39.7511 152.47 39.7008 153.158 39.5832C153.864 39.4656 154.502 39.2809 155.09 39.0458L155.812 43.1939C155.224 43.4458 154.485 43.6641 153.595 43.8488C152.705 44.0336 151.731 44.1175 150.673 44.1175C149.044 44.1175 147.633 43.8656 146.458 43.3786C145.282 42.8916 144.308 42.2198 143.552 41.3801C142.797 40.5405 142.242 39.5496 141.89 38.4076C141.537 37.2321 141.369 35.9893 141.369 34.6626Z" fill="#3F3E40"/>
<path d="M164.763 20.5383C164.763 21.462 164.461 22.2009 163.857 22.7383C163.252 23.2757 162.547 23.5444 161.724 23.5444C160.901 23.5444 160.196 23.2757 159.591 22.7383C158.986 22.2009 158.684 21.4788 158.684 20.5383C158.684 19.6147 158.986 18.8757 159.591 18.3383C160.196 17.8009 160.901 17.5322 161.724 17.5322C162.547 17.5322 163.252 17.8009 163.857 18.3383C164.461 18.8757 164.763 19.6147 164.763 20.5383ZM164.293 43.5964H159.221V25.7109H164.293V43.5964Z" fill="#3F3E40"/>
<path d="M168.878 21.2609L173.949 20.438V25.7113H180.046V29.9265H173.949V36.2242C173.949 37.2823 174.134 38.1387 174.504 38.7769C174.873 39.4151 175.629 39.7342 176.771 39.7342C177.308 39.7342 177.879 39.6838 178.45 39.583C179.021 39.4823 179.559 39.3311 180.029 39.1632L180.751 43.1097C180.146 43.3616 179.458 43.58 178.702 43.7479C177.946 43.9326 177.039 44.0166 175.948 44.0166C174.571 44.0166 173.412 43.8319 172.505 43.4624C171.598 43.0929 170.876 42.5723 170.322 41.9006C169.785 41.2288 169.398 40.4227 169.18 39.4655C168.962 38.5082 168.861 37.4502 168.861 36.3082V21.2609H168.878Z" fill="#3F3E40"/>
<path d="M183.992 21.2609L189.064 20.438V25.7113H195.16V29.9265H189.064V36.2242C189.064 37.2823 189.249 38.1387 189.618 38.7769C189.988 39.4151 190.744 39.7342 191.886 39.7342C192.423 39.7342 192.994 39.6838 193.565 39.583C194.136 39.4823 194.673 39.3311 195.144 39.1632L195.866 43.1097C195.261 43.3616 194.573 43.58 193.817 43.7479C193.061 43.9326 192.154 44.0166 191.063 44.0166C189.686 44.0166 188.527 43.8319 187.62 43.4624C186.713 43.0929 185.991 42.5723 185.437 41.9006C184.899 41.2288 184.513 40.4227 184.295 39.4655C184.076 38.5082 183.976 37.4502 183.976 36.3082V21.2609H183.992Z" fill="#3F3E40"/>
<path d="M205.018 25.2411C206.513 25.2411 207.756 25.409 208.763 25.7449C209.754 26.0808 210.56 26.5678 211.165 27.206C211.769 27.8442 212.189 28.6167 212.441 29.5235C212.693 30.4304 212.811 31.4381 212.811 32.5465V43.093C212.088 43.2442 211.081 43.4457 209.788 43.6472C208.495 43.8655 206.933 43.9663 205.085 43.9663C203.927 43.9663 202.885 43.8655 201.945 43.664C201.005 43.4625 200.198 43.1266 199.51 42.6564C198.821 42.1861 198.301 41.5816 197.948 40.8426C197.579 40.0869 197.411 39.18 197.411 38.0884C197.411 37.0472 197.612 36.1571 198.032 35.435C198.452 34.7129 199.006 34.1251 199.711 33.7052C200.417 33.2686 201.223 32.9663 202.13 32.7648C203.037 32.58 203.977 32.4793 204.951 32.4793C205.606 32.4793 206.194 32.5129 206.698 32.5632C207.201 32.6136 207.621 32.6976 207.94 32.7816V32.3113C207.94 31.4548 207.672 30.7663 207.151 30.2289C206.63 29.7083 205.724 29.4396 204.43 29.4396C203.574 29.4396 202.718 29.5068 201.878 29.6243C201.038 29.7419 200.316 29.9266 199.695 30.1449L199.056 26.064C199.359 25.98 199.728 25.8793 200.165 25.7785C200.601 25.6777 201.089 25.5938 201.609 25.5098C202.13 25.4258 202.684 25.3587 203.255 25.3083C203.843 25.2579 204.43 25.2411 205.018 25.2411ZM204.179 16.4243L208.998 21.9327L206.664 24.0152L201.072 19.2793L204.179 16.4243ZM205.421 40.0701C205.925 40.0701 206.395 40.0533 206.849 40.0365C207.302 40.0197 207.672 39.9861 207.94 39.9358V36.09C207.739 36.0396 207.437 36.006 207.017 35.9556C206.614 35.9052 206.227 35.8884 205.892 35.8884C205.421 35.8884 204.968 35.922 204.548 35.9724C204.128 36.0228 203.759 36.1403 203.44 36.2915C203.121 36.4426 202.869 36.661 202.684 36.9464C202.499 37.2152 202.415 37.551 202.415 37.9709C202.415 38.7602 202.684 39.3144 203.221 39.6167C203.759 39.919 204.498 40.0701 205.421 40.0701Z" fill="#3F3E40"/>
<path d="M22.5189 55H22.3006C16.4396 54.9664 11.0151 52.6489 7.00139 48.4336C3.693 44.9573 -0.13601 38.6092 0.401395 28.0962C1.07315 14.8122 10.2594 0.0167939 22.3846 0H22.4518C34.6777 0.0503817 43.8976 14.829 44.5693 28.0962C45.0899 38.5588 41.2609 44.8901 37.9525 48.3664C33.9052 52.6153 28.4304 54.9664 22.5189 55ZM22.435 5.27328C15.3983 5.29008 6.74949 15.4336 6.11132 28.516C5.75865 35.4183 7.522 41.0947 11.1999 44.9573C14.1388 48.0473 18.119 49.7435 22.435 49.7435C26.7846 49.7435 30.8319 48.0305 33.8044 44.8901C37.4823 41.0275 39.2457 35.3679 38.9098 28.516C38.6243 22.9405 36.5251 16.8779 33.2838 12.3267C31.3861 9.67328 27.4899 5.27328 22.435 5.27328Z" fill="#5463AB"/>
</svg>
