<svg width="126" height="55" viewBox="0 0 126 55" fill="none" xmlns="http://www.w3.org/2000/svg">
<path d="M0 54.114V0.000976562H10.369V54.114H0Z" fill="#00063D"/>
<path d="M54.7998 47.4504C54.7998 49.906 54.941 52.6053 55.1025 54.1072H45.6525C45.5113 53.3562 45.2891 51.5703 45.2891 49.8451C43.6537 52.7677 39.9383 55 35.0315 55C24.6326 55 17.1816 46.7806 17.1816 35.6586C17.1816 24.9023 24.3903 16.4594 34.7287 16.4594C41.049 16.4594 44.0172 19.0775 45.0671 21.0259V0H54.7998V47.4504ZM36.2028 46.0906C41.2509 46.0906 45.1883 42.2142 45.1883 35.5574C45.1883 28.9815 41.2509 25.3285 36.2028 25.3285C31.1548 25.3285 27.1364 29.0627 27.1364 35.6383C27.1364 42.2142 31.0133 46.0906 36.2028 46.0906Z" fill="#00063D"/>
<path d="M88.2847 54.1069V0H97.9981V21.3788C99.6304 18.7597 103.641 16.364 109.062 16.364C119.743 16.364 125.909 24.6678 125.909 35.5705C125.909 46.7166 119.078 55 108.699 55C103.661 55 99.7916 52.7669 97.8772 49.6198V54.1069H88.2847ZM106.966 25.2566C101.988 25.2566 97.8369 28.9111 97.8369 35.6517C97.8369 42.311 101.988 46.1075 106.966 46.1075C112.004 46.1075 116.014 42.3719 116.014 35.6517C116.014 28.9314 112.024 25.2566 106.966 25.2566Z" fill="#00063D"/>
<path d="M71.5449 12.4194C74.9437 12.4194 77.6181 9.62297 77.6181 6.29193C77.6181 2.81699 74.9437 0 71.5449 0C68.2065 0 65.4717 2.79641 65.4717 6.29193C65.4717 9.62297 68.2065 12.4194 71.5449 12.4194Z" fill="#4F52DF"/>
<path d="M76.8546 16.2622H65.9584C64.2835 16.2622 62.9718 17.7062 63.113 19.3943L66.2004 54.1118H76.5922L79.6797 19.3943C79.8412 17.7062 78.5295 16.2622 76.8546 16.2622Z" fill="#4F52DF"/>
</svg>
