<svg xmlns="http://www.w3.org/2000/svg" viewBox="0 0 1000 1000" width="1000" height="1000" preserveAspectRatio="xMidYMid meet" style="width: 100%; height: 100%; transform: translate3d(0px, 0px, 0px); content-visibility: visible;"><defs><clipPath id="__lottie_element_82"><rect width="1000" height="1000" x="0" y="0"/></clipPath><linearGradient id="__lottie_element_86" spreadMethod="pad" gradientUnits="userSpaceOnUse" x1="13.5" y1="43" x2="-7.0329999923706055" y2="-7.322999954223633"><stop offset="0%" stop-color="rgb(184,79,248)"/><stop offset="50%" stop-color="rgb(157,59,243)"/><stop offset="100%" stop-color="rgb(130,39,238)"/></linearGradient><linearGradient id="__lottie_element_87" spreadMethod="pad" gradientUnits="userSpaceOnUse" x1="-14.5" y1="-2.9000000953674316" x2="-34.099998474121094" y2="-3.01200008392334"><stop offset="0%" stop-color="rgb(128,205,253)"/><stop offset="50%" stop-color="rgb(100,182,251)"/><stop offset="100%" stop-color="rgb(73,159,249)"/></linearGradient><linearGradient id="__lottie_element_88" spreadMethod="pad" gradientUnits="userSpaceOnUse" x1="-10.291999816894531" y1="-13.793999671936035" x2="-24.641000747680664" y2="-27.94499969482422"><stop offset="0%" stop-color="rgb(128,205,253)"/><stop offset="50%" stop-color="rgb(100,182,251)"/><stop offset="100%" stop-color="rgb(73,159,249)"/></linearGradient><linearGradient id="__lottie_element_89" spreadMethod="pad" gradientUnits="userSpaceOnUse" x1="10.446000099182129" y1="-13.699999809265137" x2="24.996000289916992" y2="-28.448999404907227"><stop offset="0%" stop-color="rgb(128,205,253)"/><stop offset="50%" stop-color="rgb(100,182,251)"/><stop offset="100%" stop-color="rgb(73,159,249)"/></linearGradient><linearGradient id="__lottie_element_90" spreadMethod="pad" gradientUnits="userSpaceOnUse" x1="0.6140000224113464" y1="-18.143999099731445" x2="0.22599999606609344" y2="-36.64400100708008"><stop offset="0%" stop-color="rgb(128,205,253)"/><stop offset="50%" stop-color="rgb(100,182,251)"/><stop offset="100%" stop-color="rgb(73,159,249)"/></linearGradient><linearGradient id="__lottie_element_91" spreadMethod="pad" gradientUnits="userSpaceOnUse" x1="15.128000259399414" y1="-2.994999885559082" x2="33.72800064086914" y2="-2.683000087738037"><stop offset="0%" stop-color="rgb(128,205,253)"/><stop offset="50%" stop-color="rgb(100,182,251)"/><stop offset="100%" stop-color="rgb(73,159,249)"/></linearGradient></defs><g clip-path="url(#__lottie_element_82)"><g transform="matrix(10,0,0,10,500,500)" opacity="1" style="display: block;"><g opacity="1" transform="matrix(1,0,0,1,0,0)"><path stroke="url(#__lottie_element_86)" stroke-linecap="round" stroke-linejoin="round" fill-opacity="0" stroke-opacity="1" stroke-width="2" d=" M-9.984000205993652,36.67100143432617 C-12.390000343322754,33.742000579833984 -14.79699993133545,30.812000274658203 -17.202999114990234,27.882999420166016 C-18.29199981689453,26.054000854492188 -17.922000885009766,23.726999282836914 -16.393999099731445,22.39900016784668 C-15.020999908447266,21.204999923706055 -12.96399974822998,21.038999557495117 -11.338000297546387,22.01799964904785 C-11.338000297546387,22.01799964904785 -4.515999794006348,28.84000015258789 -4.515999794006348,28.84000015258789 C-4.515999794006348,18.027999877929688 -4.515999794006348,7.215000152587891 -4.515999794006348,-3.5969998836517334 C-4.4029998779296875,-5.8480000495910645 -2.556999921798706,-7.63700008392334 -0.35100001096725464,-7.685999870300293 C1.9240000247955322,-7.736999988555908 3.88700008392334,-5.920000076293945 4.005000114440918,-3.5969998836517334 C4.005000114440918,-3.5969998836517334 4.005000114440918,17.06399917602539 4.005000114440918,17.06399917602539 C4.005000114440918,16.16900062561035 4.005000114440918,15.27400016784668 4.005000114440918,14.378999710083008 C4.160999774932861,12.255999565124512 5.8480000495910645,10.588000297546387 7.85099983215332,10.456999778747559 C10.041999816894531,10.314000129699707 12.065999984741211,12.045999526977539 12.246999740600586,14.378999710083008 C12.246999740600586,14.378999710083008 12.246999740600586,20.91900062561035 12.246999740600586,20.91900062561035 C12.246999740600586,19.910999298095703 12.246999740600586,18.902000427246094 12.246999740600586,17.893999099731445 C12.230999946594238,15.619999885559082 13.918000221252441,13.76099967956543 15.925999641418457,13.553000450134277 C18.215999603271484,13.315999984741211 20.476999282836914,15.27299976348877 20.489999771118164,17.893999099731445 C20.489999771118164,17.893999099731445 20.489999771118164,23.516000747680664 20.489999771118164,23.516000747680664 C20.489999771118164,22.28499984741211 20.489999771118164,21.05500030517578 20.489999771118164,19.823999404907227 C20.663000106811523,17.714000701904297 22.39900016784668,16.07200050354004 24.44700050354004,16.01099967956543 C26.60099983215332,15.946999549865723 28.496999740600586,17.648000717163086 28.655000686645508,19.871999740600586 C28.655000686645508,19.871999740600586 28.655000686645508,36.722999572753906 28.655000686645508,36.722999572753906"/></g><g opacity="1" transform="matrix(1,0,0,1,0,0)"><path stroke="url(#__lottie_element_87)" stroke-linecap="round" stroke-linejoin="round" fill-opacity="0" stroke-opacity="1" stroke-width="2" d=" M-25.47599983215332,-3.0480000972747803 C-25.47599983215332,-0.8080000281333923 -27.29199981689453,1.0089999437332153 -29.531999588012695,1.0089999437332153 C-31.77199935913086,1.0089999437332153 -33.5880012512207,-0.8080000281333923 -33.5880012512207,-3.0480000972747803 C-33.5880012512207,-5.288000106811523 -31.77199935913086,-7.104000091552734 -29.531999588012695,-7.104000091552734 C-27.29199981689453,-7.104000091552734 -25.47599983215332,-5.288000106811523 -25.47599983215332,-3.0480000972747803z M-25.47599983215332,-3.0480000972747803 C-25.47599983215332,-3.0480000972747803 -15.15999984741211,-3.0480000972747803 -15.15999984741211,-3.0480000972747803"/></g><g opacity="1" transform="matrix(1,0,0,1,0,0)"><path stroke="url(#__lottie_element_88)" stroke-linecap="round" stroke-linejoin="round" fill-opacity="0" stroke-opacity="1" stroke-width="2" d=" M-18.013999938964844,-21.378000259399414 C-19.597999572753906,-19.79400062561035 -22.166000366210938,-19.79400062561035 -23.75,-21.378000259399414 C-25.333999633789062,-22.961999893188477 -25.333999633789062,-25.5310001373291 -23.75,-27.114999771118164 C-22.166000366210938,-28.698999404907227 -19.597999572753906,-28.698999404907227 -18.013999938964844,-27.114999771118164 C-16.43000030517578,-25.5310001373291 -16.43000030517578,-22.961999893188477 -18.013999938964844,-21.378000259399414z M-18.013999938964844,-21.378000259399414 C-18.013999938964844,-21.378000259399414 -10.718999862670898,-14.083999633789062 -10.718999862670898,-14.083999633789062"/></g><g opacity="1" transform="matrix(1,0,0,1,0,0)"><path stroke="url(#__lottie_element_89)" stroke-linecap="round" stroke-linejoin="round" fill-opacity="0" stroke-opacity="1" stroke-width="2" d=" M18.118000030517578,-21.56399917602539 C16.534000396728516,-23.148000717163086 16.534000396728516,-25.715999603271484 18.118000030517578,-27.299999237060547 C19.70199966430664,-28.884000778198242 22.270999908447266,-28.884000778198242 23.854999542236328,-27.299999237060547 C25.43899917602539,-25.715999603271484 25.43899917602539,-23.148000717163086 23.854999542236328,-21.56399917602539 C22.270999908447266,-19.979999542236328 19.70199966430664,-19.979999542236328 18.118000030517578,-21.56399917602539z M18.118000030517578,-21.56399917602539 C18.118000030517578,-21.56399917602539 10.824000358581543,-14.269000053405762 10.824000358581543,-14.269000053405762"/></g><g opacity="1" transform="matrix(1,0,0,1,0,0)"><path stroke="url(#__lottie_element_90)" stroke-linecap="round" stroke-linejoin="round" fill-opacity="0" stroke-opacity="1" stroke-width="2" d=" M0.07900000363588333,-28.822999954223633 C-2.1610000133514404,-28.822999954223633 -3.9769999980926514,-30.638999938964844 -3.9769999980926514,-32.87900161743164 C-3.9769999980926514,-35.11899948120117 -2.1610000133514404,-36.935001373291016 0.07900000363588333,-36.935001373291016 C2.319000005722046,-36.935001373291016 4.135000228881836,-35.11899948120117 4.135000228881836,-32.87900161743164 C4.135000228881836,-30.638999938964844 2.319000005722046,-28.822999954223633 0.07900000363588333,-28.822999954223633z M0.07900000363588333,-28.822999954223633 C0.07900000363588333,-28.822999954223633 0.07900000363588333,-18.506000518798828 0.07900000363588333,-18.506000518798828"/></g><g opacity="1" transform="matrix(1,0,0,1,0,0)"><path stroke="url(#__lottie_element_91)" stroke-linecap="round" stroke-linejoin="round" fill-opacity="0" stroke-opacity="1" stroke-width="2" d=" M25.472000122070312,-3.0480000972747803 C25.472000122070312,-5.288000106811523 27.288000106811523,-7.104000091552734 29.527999877929688,-7.104000091552734 C31.76799964904785,-7.104000091552734 33.584999084472656,-5.288000106811523 33.584999084472656,-3.0480000972747803 C33.584999084472656,-0.8080000281333923 31.76799964904785,1.0089999437332153 29.527999877929688,1.0089999437332153 C27.288000106811523,1.0089999437332153 25.472000122070312,-0.8080000281333923 25.472000122070312,-3.0480000972747803z M25.472000122070312,-3.0480000972747803 C25.472000122070312,-3.0480000972747803 15.156000137329102,-3.0480000972747803 15.156000137329102,-3.0480000972747803"/></g></g></g></svg>